<svg id="visual" viewBox="0 0 900 600" width="900" height="600" xmlns="http://www.w3.org/2000/svg" xmlns:xlink="http://www.w3.org/1999/xlink" version="1.1"><path d="M0 506L37.5 488.8C75 471.7 150 437.3 225 437.5C300 437.7 375 472.3 450 488.8C525 505.3 600 503.7 675 502.2C750 500.7 825 499.3 862.5 498.7L900 498L900 601L862.5 601C825 601 750 601 675 601C600 601 525 601 450 601C375 601 300 601 225 601C150 601 75 601 37.5 601L0 601Z" fill="#252424" stroke-linecap="round" stroke-linejoin="miter"></path></svg>